<?xml version="1.0" standalone="no"?>
<!DOCTYPE svg PUBLIC "-//W3C//DTD SVG 20010904//EN"
 "http://www.w3.org/TR/2001/REC-SVG-20010904/DTD/svg10.dtd">
<svg version="1.0" xmlns="http://www.w3.org/2000/svg"
 width="100.000000pt" height="100.000000pt" viewBox="0 0 100.000000 100.000000"
 preserveAspectRatio="xMidYMid meet">

<g transform="translate(0.000000,100.000000) scale(0.100000,-0.100000)"
fill="#ffffff" stroke="none">
<path d="M545 840 l-60 -60 63 -62 62 -63 27 27 c23 23 24 29 13 43 -12 14 -6
16 66 13 l79 -3 0 -235 0 -235 -127 -3 -128 -3 0 -39 0 -40 130 0 c79 0 139 5
155 12 51 23 55 46 55 308 0 315 -3 320 -161 320 -76 0 -79 1 -67 19 10 17 9
23 -6 40 -11 12 -24 21 -30 21 -7 0 -38 -27 -71 -60z"/>
<path d="M171 806 c-47 -26 -50 -45 -51 -304 0 -317 2 -322 162 -322 72 0 79
-2 68 -16 -11 -13 -9 -19 13 -42 l27 -27 62 63 63 62 -60 60 c-33 33 -64 60
-71 60 -6 0 -19 -9 -30 -21 -15 -17 -16 -23 -6 -40 12 -19 10 -20 -65 -17
l-78 3 0 235 0 235 128 3 127 3 0 39 0 40 -132 0 c-91 -1 -141 -5 -157 -14z"/>
</g>
</svg>
