<?xml version="1.0" standalone="no"?>
<!DOCTYPE svg PUBLIC "-//W3C//DTD SVG 20010904//EN"
 "http://www.w3.org/TR/2001/REC-SVG-20010904/DTD/svg10.dtd">
<svg version="1.0" xmlns="http://www.w3.org/2000/svg"
 width="96.000000pt" height="96.000000pt" viewBox="0 0 96.000000 96.000000"
 preserveAspectRatio="xMidYMid meet">

<g transform="translate(0.000000,96.000000) scale(0.100000,-0.100000)"
fill="#ffffff" stroke="none">
<path d="M185 855 l-25 -24 0 -351 0 -351 25 -24 24 -25 271 0 271 0 24 25 25
24 0 351 0 351 -25 24 -24 25 -271 0 -271 0 -24 -25z m135 -215 l0 -160 60 30
60 30 60 -30 60 -30 0 160 0 160 80 0 80 0 0 -320 0 -320 -240 0 -240 0 0 320
0 320 40 0 40 0 0 -160z m160 65 c0 -93 -1 -95 -20 -85 -14 8 -26 8 -40 0 -19
-10 -20 -8 -20 85 l0 95 40 0 40 0 0 -95z"/>
</g>
</svg>
