<?xml version="1.0" standalone="no"?>
<!DOCTYPE svg PUBLIC "-//W3C//DTD SVG 20010904//EN"
 "http://www.w3.org/TR/2001/REC-SVG-20010904/DTD/svg10.dtd">
<svg version="1.0" xmlns="http://www.w3.org/2000/svg"
 width="90.000000pt" height="90.000000pt" viewBox="0 0 90.000000 90.000000"
 preserveAspectRatio="xMidYMid meet">

<g transform="translate(0.000000,90.000000) scale(0.100000,-0.100000)"
fill="#000000" stroke="none">
<path d="M356 795 c-22 -8 -51 -22 -65 -33 -32 -23 -71 -97 -71 -134 0 -28 1
-28 65 -28 59 0 65 2 65 20 0 36 44 70 90 70 52 0 74 -12 89 -48 16 -39 2 -73
-45 -109 -21 -15 -55 -44 -76 -64 -34 -33 -38 -42 -38 -88 l0 -51 65 0 c63 0
65 1 65 26 0 39 16 61 74 98 68 43 98 86 104 146 6 66 -12 114 -59 154 -64 54
-177 72 -263 41z"/>
<path d="M380 220 c-12 -12 -20 -33 -20 -55 0 -46 29 -75 75 -75 46 0 75 29
75 75 0 22 -8 43 -20 55 -12 12 -33 20 -55 20 -22 0 -43 -8 -55 -20z"/>
</g>
</svg>
